<svg width="40" height="40" viewBox="0 0 40 40" fill="none" xmlns="http://www.w3.org/2000/svg">
<path d="M35.0003 28.3333H5.00033V8.33333H35.0003V28.3333ZM35.0003 5H5.00033C4.11627 5 3.26842 5.35119 2.6433 5.97631C2.01818 6.60143 1.66699 7.44928 1.66699 8.33333V28.3333C1.66699 29.2174 2.01818 30.0652 2.6433 30.6904C3.26842 31.3155 4.11627 31.6667 5.00033 31.6667H13.3337V35H26.667V31.6667H35.0003C35.8844 31.6667 36.7322 31.3155 37.3573 30.6904C37.9825 30.0652 38.3337 29.2174 38.3337 28.3333V8.33333C38.3337 7.44928 37.9825 6.60143 37.3573 5.97631C36.7322 5.35119 35.8844 5 35.0003 5Z" fill="#181A18"/>
</svg>
