<svg xmlns="http://www.w3.org/2000/svg" width="60" height="60" viewBox="0 0 60 60" fill="none">
<path d="M45 10H42.5V7.5C42.5 6.83696 42.2366 6.20107 41.7678 5.73223C41.2989 5.26339 40.663 5 40 5C39.337 5 38.7011 5.26339 38.2322 5.73223C37.7634 6.20107 37.5 6.83696 37.5 7.5V10H22.5V7.5C22.5 6.83696 22.2366 6.20107 21.7678 5.73223C21.2989 5.26339 20.663 5 20 5C19.337 5 18.7011 5.26339 18.2322 5.73223C17.7634 6.20107 17.5 6.83696 17.5 7.5V10H15C13.0109 10 11.1032 10.7902 9.6967 12.1967C8.29018 13.6032 7.5 15.5109 7.5 17.5V47.5C7.5 49.4891 8.29018 51.3968 9.6967 52.8033C11.1032 54.2098 13.0109 55 15 55H45C46.9891 55 48.8968 54.2098 50.3033 52.8033C51.7098 51.3968 52.5 49.4891 52.5 47.5V17.5C52.5 15.5109 51.7098 13.6032 50.3033 12.1967C48.8968 10.7902 46.9891 10 45 10ZM20 42.5C19.5055 42.5 19.0222 42.3534 18.6111 42.0787C18.2 41.804 17.8795 41.4135 17.6903 40.9567C17.5011 40.4999 17.4516 39.9972 17.548 39.5123C17.6445 39.0273 17.8826 38.5819 18.2322 38.2322C18.5819 37.8826 19.0273 37.6445 19.5123 37.548C19.9972 37.4516 20.4999 37.5011 20.9567 37.6903C21.4135 37.8795 21.804 38.2 22.0787 38.6111C22.3534 39.0222 22.5 39.5055 22.5 40C22.5 40.663 22.2366 41.2989 21.7678 41.7678C21.2989 42.2366 20.663 42.5 20 42.5ZM40 42.5H30C29.337 42.5 28.7011 42.2366 28.2322 41.7678C27.7634 41.2989 27.5 40.663 27.5 40C27.5 39.337 27.7634 38.7011 28.2322 38.2322C28.7011 37.7634 29.337 37.5 30 37.5H40C40.663 37.5 41.2989 37.7634 41.7678 38.2322C42.2366 38.7011 42.5 39.337 42.5 40C42.5 40.663 42.2366 41.2989 41.7678 41.7678C41.2989 42.2366 40.663 42.5 40 42.5ZM47.5 27.5H12.5V17.5C12.5 16.837 12.7634 16.2011 13.2322 15.7322C13.7011 15.2634 14.337 15 15 15H17.5V17.5C17.5 18.163 17.7634 18.7989 18.2322 19.2678C18.7011 19.7366 19.337 20 20 20C20.663 20 21.2989 19.7366 21.7678 19.2678C22.2366 18.7989 22.5 18.163 22.5 17.5V15H37.5V17.5C37.5 18.163 37.7634 18.7989 38.2322 19.2678C38.7011 19.7366 39.337 20 40 20C40.663 20 41.2989 19.7366 41.7678 19.2678C42.2366 18.7989 42.5 18.163 42.5 17.5V15H45C45.663 15 46.2989 15.2634 46.7678 15.7322C47.2366 16.2011 47.5 16.837 47.5 17.5V27.5Z" fill="#181A18"/>
</svg>