<svg width="40" height="40" viewBox="0 0 40 40" fill="none" xmlns="http://www.w3.org/2000/svg">
<path d="M35.0003 23.3335V6.66683H5.00033V23.3335H35.0003ZM35.0003 3.3335C35.8844 3.3335 36.7322 3.68469 37.3573 4.30981C37.9825 4.93493 38.3337 5.78277 38.3337 6.66683V26.6668C38.3337 27.5509 37.9825 28.3987 37.3573 29.0239C36.7322 29.649 35.8844 30.0002 35.0003 30.0002H23.3337L26.667 35.0002V36.6668H13.3337V35.0002L16.667 30.0002H5.00033C4.11627 30.0002 3.26842 29.649 2.6433 29.0239C2.01818 28.3987 1.66699 27.5509 1.66699 26.6668V6.66683C1.66699 4.81683 3.15033 3.3335 5.00033 3.3335H35.0003ZM6.66699 8.3335H25.0003V16.6668H6.66699V8.3335ZM26.667 8.3335H33.3337V11.6668H26.667V8.3335ZM33.3337 13.3335V21.6668H26.667V13.3335H33.3337ZM6.66699 18.3335H15.0003V21.6668H6.66699V18.3335ZM16.667 18.3335H25.0003V21.6668H16.667V18.3335Z" fill="#181A18"/>
</svg>
