<svg width="40" height="40" viewBox="0 0 40 40" fill="none" xmlns="http://www.w3.org/2000/svg">
<path d="M20 5.00001C12.4333 5.00001 5.56667 7.96667 0.483333 12.7833C0.183333 13.0833 0 13.5 0 13.9667C0 14.4333 0.183333 14.85 0.483333 15.15L4.61667 19.2833C4.92885 19.592 5.34927 19.7665 5.78828 19.7696C6.22728 19.7727 6.65014 19.6042 6.96667 19.3C8.28333 18.0667 9.78333 17.0333 11.4 16.2167C11.95 15.95 12.3333 15.3833 12.3333 14.7167V9.55001C14.75 8.75001 17.3167 8.33334 20 8.33334C22.65 8.33334 25.2333 8.75001 27.65 9.53334V14.7C27.65 15.35 28.0333 15.9333 28.5833 16.2C30.2167 17.0167 31.6667 18.0667 33.0333 19.2833C33.3333 19.5833 33.75 19.75 34.1667 19.75C34.6667 19.75 35.0833 19.5667 35.3833 19.2667L39.5167 15.1333C39.8167 14.8333 40 14.4167 40 13.95C40 13.4833 39.8 13.0833 39.5 12.7833C34.2399 7.78228 27.2581 4.99551 20 5.00001ZM15 11.6667V16.6667C15 16.6667 5 25 5 30V36.6667H35V30C35 25 25 16.6667 25 16.6667V11.6667H21.6667V15H18.3333V11.6667H15ZM20 20C21.7681 20 23.4638 20.7024 24.714 21.9526C25.9643 23.2029 26.6667 24.8986 26.6667 26.6667C26.6667 28.4348 25.9643 30.1305 24.714 31.3807C23.4638 32.631 21.7681 33.3333 20 33.3333C18.2319 33.3333 16.5362 32.631 15.286 31.3807C14.0357 30.1305 13.3333 28.4348 13.3333 26.6667C13.3333 24.8986 14.0357 23.2029 15.286 21.9526C16.5362 20.7024 18.2319 20 20 20ZM20 22.5C18.8949 22.5 17.8351 22.939 17.0537 23.7204C16.2723 24.5018 15.8333 25.5616 15.8333 26.6667C15.8333 27.7717 16.2723 28.8315 17.0537 29.613C17.8351 30.3944 18.8949 30.8333 20 30.8333C21.1051 30.8333 22.1649 30.3944 22.9463 29.613C23.7277 28.8315 24.1667 27.7717 24.1667 26.6667C24.1667 25.5616 23.7277 24.5018 22.9463 23.7204C22.1649 22.939 21.1051 22.5 20 22.5Z" fill="#181A18"/>
</svg>
