<svg width="40" height="40" viewBox="0 0 40 40" fill="none" xmlns="http://www.w3.org/2000/svg">
<path d="M30.0003 10.0002V6.66683H33.3337V3.3335H10.0003C8.16699 3.3335 6.66699 4.8335 6.66699 6.66683V33.3335C6.66699 35.1668 8.16699 36.6668 10.0003 36.6668H33.3337V33.3335H26.617C27.6644 32.5656 28.5165 31.5621 29.1043 30.4039C29.692 29.2458 29.999 27.9656 30.0003 26.6668V18.3335H13.3337V26.6668C13.3337 29.4002 14.6837 31.8168 16.717 33.3335H10.0003V6.66683H13.3337V10.0002C13.3337 10.9168 14.0837 11.6668 15.0003 11.6668H28.3337C29.2503 11.6668 30.0003 10.9168 30.0003 10.0002ZM21.667 13.3335C22.5837 13.3335 23.3337 14.0835 23.3337 15.0002C23.3337 15.9168 22.5837 16.6668 21.667 16.6668C20.7503 16.6668 20.0003 15.9168 20.0003 15.0002C20.0003 14.0835 20.7503 13.3335 21.667 13.3335Z" fill="#181A18"/>
</svg>
