<svg width="40" height="40" viewBox="0 0 40 40" fill="none" xmlns="http://www.w3.org/2000/svg">
<path d="M10.0003 3.3335H30.0003C30.8844 3.3335 31.7322 3.68469 32.3573 4.30981C32.9825 4.93493 33.3337 5.78277 33.3337 6.66683V33.3335C33.3337 34.2176 32.9825 35.0654 32.3573 35.6905C31.7322 36.3156 30.8844 36.6668 30.0003 36.6668H10.0003C9.11627 36.6668 8.26842 36.3156 7.6433 35.6905C7.01818 35.0654 6.66699 34.2176 6.66699 33.3335V6.66683C6.66699 5.78277 7.01818 4.93493 7.6433 4.30981C8.26842 3.68469 9.11627 3.3335 10.0003 3.3335ZM11.667 6.66683C11.225 6.66683 10.801 6.84242 10.4885 7.15499C10.1759 7.46755 10.0003 7.89147 10.0003 8.3335C10.0003 8.77552 10.1759 9.19945 10.4885 9.51201C10.801 9.82457 11.225 10.0002 11.667 10.0002C12.109 10.0002 12.5329 9.82457 12.8455 9.51201C13.1581 9.19945 13.3337 8.77552 13.3337 8.3335C13.3337 7.89147 13.1581 7.46755 12.8455 7.15499C12.5329 6.84242 12.109 6.66683 11.667 6.66683ZM16.667 6.66683C16.225 6.66683 15.801 6.84242 15.4885 7.15499C15.1759 7.46755 15.0003 7.89147 15.0003 8.3335C15.0003 8.77552 15.1759 9.19945 15.4885 9.51201C15.801 9.82457 16.225 10.0002 16.667 10.0002C17.109 10.0002 17.5329 9.82457 17.8455 9.51201C18.1581 9.19945 18.3337 8.77552 18.3337 8.3335C18.3337 7.89147 18.1581 7.46755 17.8455 7.15499C17.5329 6.84242 17.109 6.66683 16.667 6.66683ZM20.0003 13.3335C17.3482 13.3335 14.8046 14.3871 12.9293 16.2624C11.0539 18.1378 10.0003 20.6813 10.0003 23.3335C10.0003 25.9857 11.0539 28.5292 12.9293 30.4046C14.8046 32.2799 17.3482 33.3335 20.0003 33.3335C22.6525 33.3335 25.196 32.2799 27.0714 30.4046C28.9468 28.5292 30.0003 25.9857 30.0003 23.3335C30.0003 20.6813 28.9468 18.1378 27.0714 16.2624C25.196 14.3871 22.6525 13.3335 20.0003 13.3335ZM13.517 17.5002H16.667C16.267 19.8002 16.667 21.1168 17.6337 22.1502C19.467 23.9335 20.267 26.1835 19.817 29.1668H16.667C17.067 26.8668 16.667 25.5502 15.7003 24.5168C13.867 22.7335 13.0837 20.4835 13.517 17.5002ZM20.1837 17.5002H23.3337C22.9337 19.8002 23.3337 21.1168 24.3003 22.1502C26.1337 23.9335 26.9337 26.1835 26.4837 29.1668H23.3337C23.7337 26.8668 23.3337 25.5502 22.367 24.5168C20.5337 22.7335 19.7503 20.4835 20.1837 17.5002Z" fill="#181A18"/>
</svg>
