<svg width="40" height="40" viewBox="0 0 40 40" fill="none" xmlns="http://www.w3.org/2000/svg">
<path d="M36.6663 36.6667H3.33301V33.3333H36.6663V36.6667ZM36.6663 10H3.33301V5H36.6663V10ZM33.333 11.6667V31.6667H28.333V18.3333C28.333 18.3333 24.1663 16.6667 19.9997 16.6667C15.833 16.6667 11.6663 18.3333 11.6663 18.3333V31.6667H6.66634V11.6667H33.333ZM24.1663 24.45H24.1163L24.683 25.3667L24.783 25.5667C25.483 27.25 24.9997 29.1667 23.683 30.4C22.4997 31.5 20.833 31.7833 19.2997 31.5833C17.8497 31.4 16.4997 30.4833 15.7497 29.2167C15.4997 28.8333 15.3163 28.3833 15.2163 27.95L14.9997 26.85C14.933 25.25 15.5663 23.5667 16.7663 22.5667C16.2163 23.7667 16.3497 25.2667 17.1663 26.3167L17.2663 26.45C17.3997 26.5667 17.583 26.6167 17.733 26.5333C17.883 26.4833 17.9997 26.3333 17.9997 26.1667L17.933 25.9333C17.0497 23.6167 17.7997 20.9167 19.6497 19.3833C20.1663 18.9667 20.833 18.5833 21.4497 18.4167C20.7663 19.7833 21.0163 21.55 22.083 22.6167L23.5663 23.8333L24.1663 24.45ZM21.8497 29.0667C22.283 28.6667 22.5497 28 22.4997 27.4V27.0833C22.2997 26.0833 21.4163 25.7667 20.833 25L20.433 24.25C20.2163 24.75 20.1997 25.2167 20.283 25.7667C20.383 26.3333 20.6163 26.8167 20.483 27.4C20.333 28.05 19.833 28.7 18.9497 28.9167C19.4497 29.4 20.2497 29.7833 21.0663 29.5167L21.8497 29.0667Z" fill="#181A18"/>
</svg>
