<svg width="40" height="40" viewBox="0 0 40 40" fill="none" xmlns="http://www.w3.org/2000/svg">
<path d="M16.6663 5.00006V8.33339C20.833 8.33339 23.1663 8.41672 24.533 9.01672C25.433 9.41672 26.2163 10.3501 27.083 11.6667H8.33301V15.0001H32.6997L31.483 12.5834C29.7663 9.16672 28.2663 7.03339 25.883 5.98339C23.4997 4.91672 20.833 5.00006 16.6663 5.00006ZM9.99967 18.3334C6.29967 18.3334 3.33301 21.3001 3.33301 25.0001V30.0001C3.33301 33.7001 6.29967 36.6667 9.99967 36.6667H29.9997C33.6997 36.6667 36.6663 33.7001 36.6663 30.0001V25.0001C36.6663 21.3001 33.6997 18.3334 29.9997 18.3334H9.99967Z" fill="#181A18"/>
</svg>
