<svg width="40" height="40" viewBox="0 0 40 40" fill="none" xmlns="http://www.w3.org/2000/svg">
  <path d="M31.6667 31.6667C31.6667 33.5167 30.1833 35 28.3333 35H11.6667C10.7826 35 9.93476 34.6488 9.30964 34.0237C8.68452 33.3986 8.33333 32.5507 8.33333 31.6667V20H5V16.6667H35V20H31.6667V31.6667ZM13.3333 2.5C11.8525 2.5 10.4324 3.08824 9.38532 4.13532C8.33824 5.1824 7.75 6.60254 7.75 8.08333C7.75 9.56413 8.33824 10.9843 9.38532 12.0313C10.4324 13.0784 11.8525 13.6667 13.3333 13.6667H15.8833C16.5333 13.6667 17.15 13.8333 17.6833 14.1667H21.05C20.0833 12.4167 18.1 11.25 15.8833 11.25H13.3333C11.6667 11.25 10.25 9.61667 10.25 7.91667C10.25 6.21667 11.6667 5 13.3333 5V2.5ZM21.4167 3.33333C21.4167 5 20 6.41667 18.3333 6.41667V8.91667C21.5333 8.91667 24.1667 11.1667 24.8167 14.1667H27.3667C27.1316 12.694 26.5434 11.3002 25.6523 10.1044C24.7613 8.90862 23.5939 7.94639 22.25 7.3C23.2833 6.28333 23.9167 4.88333 23.9167 3.33333H21.4167Z" fill="#181A18" />
</svg>
