<svg width="40" height="40" viewBox="0 0 40 40" fill="none" xmlns="http://www.w3.org/2000/svg">
<path d="M11.6663 3.3335H28.333C29.2171 3.3335 30.0649 3.68469 30.69 4.30981C31.3152 4.93493 31.6663 5.78277 31.6663 6.66683V15.0002H8.33301V6.66683C8.33301 5.78277 8.6842 4.93493 9.30932 4.30981C9.93444 3.68469 10.7823 3.3335 11.6663 3.3335ZM31.6663 31.6668C31.6663 32.5509 31.3152 33.3987 30.69 34.0239C30.0649 34.649 29.2171 35.0002 28.333 35.0002V36.6668H24.9997V35.0002H14.9997V36.6668H11.6663V35.0002C10.7823 35.0002 9.93444 34.649 9.30932 34.0239C8.6842 33.3987 8.33301 32.5509 8.33301 31.6668V16.6668H31.6663V31.6668ZM13.333 8.3335V11.6668H16.6663V8.3335H13.333ZM13.333 20.0002V25.0002H16.6663V20.0002H13.333Z" fill="#181A18"/>
</svg>
