<svg xmlns="http://www.w3.org/2000/svg" width="60" height="60" viewBox="0 0 60 60" fill="none">
<path d="M31.25 17.5C31.25 14.725 33.475 12.5 36.25 12.5H45C47.75 12.5 50 14.75 50 17.5V22.9C47.1 23.925 45 26.675 45 29.925V35H31.25V17.5ZM15 29.9V35H28.75V17.5C28.75 14.725 26.525 12.5 23.75 12.5H15C12.25 12.5 10 14.75 10 17.5V22.875C12.9 23.9 15 26.675 15 29.9ZM51.65 25.075C49.2 25.475 47.5 27.8 47.5 30.3V37.5H12.5V30C12.5 28.6739 11.9732 27.4021 11.0355 26.4645C10.0979 25.5268 8.82608 25 7.5 25C6.17392 25 4.90215 25.5268 3.96447 26.4645C3.02678 27.4021 2.5 28.6739 2.5 30V42.5C2.5 45.25 4.75 47.5 7.5 47.5V52.5H12.5V47.5H47.5V52.5H52.5V47.5C55.25 47.5 57.5 45.25 57.5 42.5V30C57.5 26.975 54.775 24.55 51.65 25.075Z" fill="black"/>
</svg>