<svg xmlns="http://www.w3.org/2000/svg" width="60" height="60" viewBox="0 0 60 60" fill="none">
<path d="M30 50C31.3807 50 32.5 48.8807 32.5 47.5C32.5 46.1193 31.3807 45 30 45C28.6193 45 27.5 46.1193 27.5 47.5C27.5 48.8807 28.6193 50 30 50Z" fill="#181A18"/>
<path d="M29.9992 35.0002C26.7635 35.0001 23.6539 36.2547 21.3242 38.5002C20.8468 38.961 20.572 39.5926 20.5603 40.256C20.5486 40.9194 20.8009 41.5603 21.2617 42.0377C21.7225 42.5151 22.3541 42.7898 23.0175 42.8015C23.6809 42.8133 24.3218 42.561 24.7992 42.1002C26.219 40.8001 28.0742 40.0791 29.9992 40.0791C31.9242 40.0791 33.7795 40.8001 35.1992 42.1002C35.6766 42.561 36.3175 42.8133 36.9809 42.8015C37.6443 42.7898 38.2759 42.5151 38.7367 42.0377C39.1975 41.5603 39.4498 40.9194 39.4381 40.256C39.4264 39.5926 39.1516 38.961 38.6742 38.5002C36.3445 36.2547 33.2349 35.0001 29.9992 35.0002ZM29.9992 22.5002C26.9797 22.5021 23.9915 23.1119 21.2127 24.293C18.4338 25.4741 15.9211 27.2025 13.8242 29.3752C13.596 29.6165 13.4176 29.9003 13.2992 30.2106C13.1807 30.5209 13.1245 30.8514 13.1338 31.1834C13.1431 31.5153 13.2177 31.8422 13.3533 32.1454C13.4889 32.4485 13.6829 32.722 13.9242 32.9502C14.4115 33.411 15.062 33.6593 15.7324 33.6406C16.0644 33.6313 16.3913 33.5567 16.6944 33.4211C16.9976 33.2855 17.271 33.0915 17.4992 32.8502C19.1317 31.1565 21.0888 29.8093 23.2538 28.8891C25.4187 27.969 27.7469 27.4947 30.0992 27.4947C32.4516 27.4947 34.7798 27.969 36.9447 28.8891C39.1096 29.8093 41.0667 31.1565 42.6992 32.8502C42.9307 33.0864 43.2069 33.2743 43.5115 33.403C43.8162 33.5318 44.1434 33.5988 44.4742 33.6002C44.9628 33.5983 45.4401 33.4533 45.8471 33.1832C46.2542 32.913 46.5732 32.5295 46.7647 32.08C46.9562 31.6306 47.0118 31.1349 46.9246 30.6541C46.8374 30.1734 46.6113 29.7288 46.2742 29.3752C44.1657 27.1904 41.6367 25.4549 38.8397 24.2734C36.0427 23.0919 33.0355 22.4887 29.9992 22.5002Z" fill="#181A18"/>
<path d="M54.2997 19.8252C47.7758 13.5316 39.0645 10.0146 29.9997 10.0146C20.9349 10.0146 12.2237 13.5316 5.69973 19.8252C5.27783 20.2943 5.04891 20.9056 5.05891 21.5365C5.0689 22.1674 5.31707 22.7711 5.75362 23.2266C6.19018 23.6822 6.78283 23.9558 7.41271 23.9926C8.04258 24.0294 8.66308 23.8267 9.14973 23.4252C14.7437 18.018 22.2196 14.9955 29.9997 14.9955C37.7799 14.9955 45.2557 18.018 50.8497 23.4252C51.3132 23.8719 51.9311 24.1226 52.5747 24.1252C52.9115 24.1239 53.2445 24.0546 53.5538 23.9214C53.8632 23.7882 54.1424 23.5939 54.3747 23.3502C54.8305 22.8719 55.0785 22.2327 55.0644 21.5722C55.0504 20.9117 54.7755 20.2836 54.2997 19.8252Z" fill="#181A18"/>
</svg>