<svg width="40" height="40" viewBox="0 0 40 40" fill="none" xmlns="http://www.w3.org/2000/svg">
<path d="M20.8337 5C13.017 5 6.66699 9.48333 6.66699 15C6.66699 16.9833 7.50033 18.9 9.06699 20.55C7.51651 22.5354 6.67201 24.9809 6.66699 27.5V33.3333C6.66699 35.1833 8.15033 36.6667 10.0003 36.6667H31.667C33.517 36.6667 35.0003 35.1833 35.0003 33.3333V27.5C35.0003 25.4667 34.4337 23.45 33.3337 21.6667L36.667 18.3333L31.667 13.3333L28.167 16.8333C25.913 15.6219 23.3925 14.9918 20.8337 15C17.7503 15 14.917 15.8833 12.5837 17.35C11.9837 16.6167 11.667 15.8333 11.667 15C11.667 12.0167 15.767 9.58333 20.8337 9.58333C23.217 9.58333 25.5003 10.1333 27.217 11.1167L30.5837 7.75C27.9503 5.98333 24.467 5 20.8337 5ZM20.8337 18.3333C21.4003 18.3333 21.9503 18.4 22.5003 18.4833C17.317 19.2833 13.3337 23.75 13.3337 29.1667V33.3333H10.0003V29.1667C10.0003 26.2935 11.1417 23.538 13.1733 21.5063C15.205 19.4747 17.9605 18.3333 20.8337 18.3333Z" fill="#181A18"/>
</svg>
