<svg xmlns="http://www.w3.org/2000/svg" width="60" height="60" viewBox="0 0 60 60" fill="none">
<path d="M47.6746 12.3248C43.5726 8.19606 38.1587 5.62784 32.3661 5.06292C26.5736 4.49799 20.7654 5.97176 15.943 9.23014C11.1206 12.4885 7.58615 17.3273 5.94897 22.9123C4.31179 28.4973 4.6745 34.4786 6.97456 39.8248C7.21429 40.3217 7.29295 40.8811 7.19956 41.4248L4.99956 51.9998C4.9148 52.4053 4.93211 52.8254 5.04993 53.2225C5.16775 53.6196 5.38239 53.9812 5.67456 54.2748C5.91407 54.5126 6.19925 54.6994 6.5129 54.824C6.82655 54.9486 7.16218 55.0084 7.49956 54.9998H7.99956L18.6996 52.8498C19.2434 52.7844 19.7949 52.862 20.2996 53.0748C25.6458 55.3749 31.627 55.7376 37.212 54.1004C42.797 52.4632 47.6358 48.9288 50.8942 44.1063C54.1526 39.2839 55.6264 33.4758 55.0615 27.6833C54.4965 21.8907 51.9283 16.4768 47.7996 12.3748L47.6746 12.3248ZM19.9996 32.4998C19.5051 32.4998 19.0218 32.3532 18.6106 32.0785C18.1995 31.8038 17.8791 31.4133 17.6899 30.9565C17.5006 30.4997 17.4511 29.997 17.5476 29.5121C17.6441 29.0271 17.8822 28.5817 18.2318 28.232C18.5814 27.8824 19.0269 27.6443 19.5118 27.5478C19.9968 27.4514 20.4995 27.5009 20.9563 27.6901C21.4131 27.8793 21.8035 28.1998 22.0782 28.6109C22.3529 29.022 22.4996 29.5054 22.4996 29.9998C22.4996 30.6629 22.2362 31.2987 21.7673 31.7676C21.2985 32.2364 20.6626 32.4998 19.9996 32.4998ZM29.9996 32.4998C29.5051 32.4998 29.0218 32.3532 28.6106 32.0785C28.1995 31.8038 27.8791 31.4133 27.6899 30.9565C27.5006 30.4997 27.4511 29.997 27.5476 29.5121C27.6441 29.0271 27.8822 28.5817 28.2318 28.232C28.5814 27.8824 29.0269 27.6443 29.5118 27.5478C29.9968 27.4514 30.4995 27.5009 30.9563 27.6901C31.4131 27.8793 31.8035 28.1998 32.0782 28.6109C32.3529 29.022 32.4996 29.5054 32.4996 29.9998C32.4996 30.6629 32.2362 31.2987 31.7673 31.7676C31.2985 32.2364 30.6626 32.4998 29.9996 32.4998ZM39.9996 32.4998C39.5051 32.4998 39.0218 32.3532 38.6106 32.0785C38.1995 31.8038 37.8791 31.4133 37.6899 30.9565C37.5006 30.4997 37.4511 29.997 37.5476 29.5121C37.6441 29.0271 37.8822 28.5817 38.2318 28.232C38.5814 27.8824 39.0269 27.6443 39.5118 27.5478C39.9968 27.4514 40.4995 27.5009 40.9563 27.6901C41.4131 27.8793 41.8035 28.1998 42.0782 28.6109C42.3529 29.022 42.4996 29.5054 42.4996 29.9998C42.4996 30.6629 42.2362 31.2987 41.7673 31.7676C41.2985 32.2364 40.6626 32.4998 39.9996 32.4998Z" fill="#181A18"/>
</svg>