<svg xmlns="http://www.w3.org/2000/svg" width="20" height="20" viewBox="0 0 20 20" fill="none">
<path d="M11.5252 15.8337C11.4007 15.8342 11.2777 15.8067 11.1652 15.7533C11.0527 15.7 10.9536 15.6221 10.8752 15.5254L6.85022 10.5254C6.72765 10.3763 6.66064 10.1892 6.66064 9.99623C6.66064 9.80321 6.72765 9.61617 6.85022 9.46706L11.0169 4.46706C11.1583 4.29688 11.3616 4.18986 11.5819 4.16954C11.8023 4.14923 12.0217 4.21728 12.1919 4.35873C12.3621 4.50017 12.4691 4.70343 12.4894 4.92379C12.5097 5.14414 12.4417 5.36355 12.3002 5.53373L8.57522 10.0004L12.1752 14.4671C12.2771 14.5894 12.3419 14.7383 12.3618 14.8963C12.3816 15.0542 12.3559 15.2146 12.2875 15.3584C12.2191 15.5021 12.111 15.6233 11.9759 15.7076C11.8408 15.7918 11.6844 15.8356 11.5252 15.8337Z" fill="#181A18"/>
</svg>