<svg xmlns="http://www.w3.org/2000/svg" width="20" height="20" viewBox="0 0 20 20" fill="none">
<path d="M10.001 14.1665C9.78823 14.1654 9.5784 14.117 9.38669 14.0248C9.19499 13.9325 9.02622 13.7987 8.89264 13.6332L5.38431 9.38317C5.1793 9.12731 5.05029 8.81901 5.01199 8.49339C4.97368 8.16778 5.02761 7.83796 5.16764 7.5415C5.28121 7.28386 5.46653 7.06435 5.70149 6.90919C5.93644 6.75403 6.2111 6.66978 6.49264 6.6665H13.5093C13.7909 6.66978 14.0655 6.75403 14.3005 6.90919C14.5354 7.06435 14.7207 7.28386 14.8343 7.5415C14.9743 7.83796 15.0283 8.16778 14.99 8.49339C14.9517 8.81901 14.8226 9.12731 14.6176 9.38317L11.1093 13.6332C10.9757 13.7987 10.807 13.9325 10.6153 14.0248C10.4236 14.117 10.2137 14.1654 10.001 14.1665Z" fill="#49735A"/>
</svg>