<svg xmlns="http://www.w3.org/2000/svg" width="24" height="24" viewBox="0 0 24 24" fill="none">
<path d="M13.5402 17.9999C13.0669 18.0005 12.6078 17.8381 12.2402 17.5399L7.1402 13.3299C6.94021 13.1707 6.7787 12.9685 6.66769 12.7382C6.55667 12.5079 6.49902 12.2556 6.49902 11.9999C6.49902 11.7443 6.55667 11.492 6.66769 11.2617C6.7787 11.0314 6.94021 10.8292 7.1402 10.6699L12.2402 6.45995C12.5472 6.21394 12.9172 6.05913 13.3079 6.01316C13.6987 5.9672 14.0945 6.03191 14.4502 6.19995C14.7594 6.33623 15.0228 6.55862 15.209 6.84057C15.3952 7.12251 15.4963 7.45209 15.5002 7.78995V16.2099C15.4963 16.5478 15.3952 16.8774 15.209 17.1593C15.0228 17.4413 14.7594 17.6637 14.4502 17.7999C14.1643 17.9299 13.8542 17.9981 13.5402 17.9999Z" fill="white"/>
</svg>