<svg xmlns="http://www.w3.org/2000/svg" width="21" height="20" viewBox="0 0 21 20" fill="none">
  <path d="M15.2002 3.33317H14.3669V2.49984C14.3669 2.27882 14.2791 2.06686 14.1228 1.91058C13.9665 1.7543 13.7545 1.6665 13.5335 1.6665C13.3125 1.6665 13.1006 1.7543 12.9443 1.91058C12.788 2.06686 12.7002 2.27882 12.7002 2.49984V3.33317H7.7002V2.49984C7.7002 2.27882 7.6124 2.06686 7.45612 1.91058C7.29984 1.7543 7.08788 1.6665 6.86686 1.6665C6.64585 1.6665 6.43389 1.7543 6.27761 1.91058C6.12133 2.06686 6.03353 2.27882 6.03353 2.49984V3.33317H5.2002C4.53715 3.33317 3.90127 3.59656 3.43243 4.0654C2.96359 4.53424 2.7002 5.17013 2.7002 5.83317V15.8332C2.7002 16.4962 2.96359 17.1321 3.43243 17.6009C3.90127 18.0698 4.53715 18.3332 5.2002 18.3332H15.2002C15.8632 18.3332 16.4991 18.0698 16.968 17.6009C17.4368 17.1321 17.7002 16.4962 17.7002 15.8332V5.83317C17.7002 5.17013 17.4368 4.53424 16.968 4.0654C16.4991 3.59656 15.8632 3.33317 15.2002 3.33317ZM6.86686 14.1665C6.70204 14.1665 6.54093 14.1176 6.40389 14.0261C6.26685 13.9345 6.16004 13.8043 6.09696 13.6521C6.03389 13.4998 6.01739 13.3322 6.04954 13.1706C6.0817 13.0089 6.16106 12.8605 6.27761 12.7439C6.39415 12.6274 6.54264 12.548 6.70429 12.5159C6.86594 12.4837 7.03349 12.5002 7.18576 12.5633C7.33804 12.6263 7.46819 12.7332 7.55975 12.8702C7.65132 13.0072 7.7002 13.1684 7.7002 13.3332C7.7002 13.5542 7.6124 13.7661 7.45612 13.9224C7.29984 14.0787 7.08788 14.1665 6.86686 14.1665ZM13.5335 14.1665H10.2002C9.97918 14.1665 9.76722 14.0787 9.61094 13.9224C9.45466 13.7661 9.36686 13.5542 9.36686 13.3332C9.36686 13.1122 9.45466 12.9002 9.61094 12.7439C9.76722 12.5876 9.97918 12.4998 10.2002 12.4998H13.5335C13.7545 12.4998 13.9665 12.5876 14.1228 12.7439C14.2791 12.9002 14.3669 13.1122 14.3669 13.3332C14.3669 13.5542 14.2791 13.7661 14.1228 13.9224C13.9665 14.0787 13.7545 14.1665 13.5335 14.1665ZM16.0335 9.1665H4.36686V5.83317C4.36686 5.61216 4.45466 5.4002 4.61094 5.24392C4.76722 5.08764 4.97918 4.99984 5.2002 4.99984H6.03353V5.83317C6.03353 6.05418 6.12133 6.26615 6.27761 6.42243C6.43389 6.57871 6.64585 6.6665 6.86686 6.6665C7.08788 6.6665 7.29984 6.57871 7.45612 6.42243C7.6124 6.26615 7.7002 6.05418 7.7002 5.83317V4.99984H12.7002V5.83317C12.7002 6.05418 12.788 6.26615 12.9443 6.42243C13.1006 6.57871 13.3125 6.6665 13.5335 6.6665C13.7545 6.6665 13.9665 6.57871 14.1228 6.42243C14.2791 6.26615 14.3669 6.05418 14.3669 5.83317V4.99984H15.2002C15.4212 4.99984 15.6332 5.08764 15.7895 5.24392C15.9457 5.4002 16.0335 5.61216 16.0335 5.83317V9.1665Z" fill="#181A18"/>
</svg>