<svg xmlns="http://www.w3.org/2000/svg" width="40" height="40" viewBox="0 0 40 40" fill="none">
  <path d="M31.666 5H11.666C10.3399 5 9.06816 5.52678 8.13048 6.46447C7.1928 7.40215 6.66602 8.67392 6.66602 10V30C6.66602 31.3261 7.1928 32.5979 8.13048 33.5355C9.06816 34.4732 10.3399 35 11.666 35H31.666C32.108 35 32.532 34.8244 32.8445 34.5118C33.1571 34.1993 33.3327 33.7754 33.3327 33.3333V6.66667C33.3327 6.22464 33.1571 5.80072 32.8445 5.48816C32.532 5.17559 32.108 5 31.666 5ZM11.666 31.6667C11.224 31.6667 10.8001 31.4911 10.4875 31.1785C10.1749 30.866 9.99935 30.442 9.99935 30C9.99935 29.558 10.1749 29.134 10.4875 28.8215C10.8001 28.5089 11.224 28.3333 11.666 28.3333H29.9993V31.6667H11.666Z" fill="black"/>
</svg>