<svg xmlns="http://www.w3.org/2000/svg" width="40" height="40" viewBox="0 0 40 40" fill="none">
  <path d="M31.666 34.583L27.816 19.583C29.2394 17.812 30.0103 15.6052 29.9993 13.333C29.9993 10.6808 28.9458 8.1373 27.0704 6.26194C25.195 4.38658 22.6515 3.33301 19.9993 3.33301C17.3472 3.33301 14.8036 4.38658 12.9283 6.26194C11.0529 8.1373 9.99933 10.6808 9.99933 13.333C9.99476 15.6227 10.784 17.8432 12.2327 19.6163L8.33266 34.583C8.24971 34.9029 8.26372 35.2402 8.37292 35.5521C8.48213 35.864 8.68159 36.1364 8.94596 36.3347C9.21034 36.533 9.52769 36.6482 9.8577 36.6657C10.1877 36.6832 10.5155 36.6022 10.7993 36.433L19.6827 31.2163L29.1493 36.4497C29.4051 36.604 29.7008 36.6794 29.9993 36.6663C30.2581 36.6746 30.5153 36.6224 30.7504 36.514C30.9855 36.4056 31.1922 36.2439 31.3539 36.0417C31.5157 35.8395 31.6281 35.6024 31.6823 35.3492C31.7364 35.096 31.7309 34.8337 31.666 34.583ZM19.9993 6.66634C21.3179 6.66634 22.6068 7.05733 23.7031 7.78988C24.7995 8.52242 25.6539 9.56361 26.1585 10.7818C26.6631 12 26.7951 13.3404 26.5379 14.6336C26.2807 15.9268 25.6457 17.1147 24.7134 18.0471C23.781 18.9794 22.5931 19.6143 21.2999 19.8716C20.0067 20.1288 18.6663 19.9968 17.4481 19.4922C16.2299 18.9876 15.1887 18.1331 14.4562 17.0368C13.7237 15.9405 13.3327 14.6515 13.3327 13.333C13.3327 11.5649 14.035 9.8692 15.2853 8.61896C16.5355 7.36872 18.2312 6.66634 19.9993 6.66634Z" fill="#181A18"/>
</svg>