<svg xmlns="http://www.w3.org/2000/svg" width="21" height="20" viewBox="0 0 21 20" fill="none">
  <path d="M7.89974 9.16667C8.55901 9.16667 9.20348 8.97117 9.75164 8.6049C10.2998 8.23863 10.727 7.71803 10.9793 7.10895C11.2316 6.49986 11.2976 5.82964 11.169 5.18303C11.0404 4.53643 10.7229 3.94249 10.2568 3.47631C9.79059 3.01014 9.19664 2.69267 8.55004 2.56405C7.90344 2.43543 7.23322 2.50144 6.62413 2.75374C6.01504 3.00603 5.49445 3.43327 5.12817 3.98143C4.7619 4.5296 4.56641 5.17406 4.56641 5.83334C4.56641 6.71739 4.9176 7.56524 5.54272 8.19036C6.16784 8.81548 7.01568 9.16667 7.89974 9.16667ZM14.5664 10.8333C15.0609 10.8333 15.5442 10.6867 15.9553 10.412C16.3665 10.1373 16.6869 9.74686 16.8761 9.29004C17.0653 8.83323 17.1148 8.33056 17.0184 7.84561C16.9219 7.36066 16.6838 6.9152 16.3342 6.56557C15.9845 6.21594 15.5391 5.97784 15.0541 5.88137C14.5692 5.78491 14.0665 5.83442 13.6097 6.02364C13.1529 6.21286 12.7624 6.53329 12.4877 6.94441C12.213 7.35553 12.0664 7.83888 12.0664 8.33334C12.0664 8.99638 12.3298 9.63226 12.7986 10.1011C13.2675 10.5699 13.9034 10.8333 14.5664 10.8333ZM17.8997 16.6667C18.1208 16.6667 18.3327 16.5789 18.489 16.4226C18.6453 16.2663 18.7331 16.0543 18.7331 15.8333C18.7324 15.0545 18.5135 14.2914 18.1011 13.6307C17.6887 12.97 17.0994 12.4381 16.4 12.0954C15.7007 11.7527 14.9192 11.6128 14.1444 11.6917C13.3696 11.7705 12.6324 12.065 12.0164 12.5417C11.2002 11.7286 10.1615 11.1755 9.03126 10.952C7.90107 10.7285 6.73001 10.8447 5.66576 11.2859C4.60152 11.7272 3.69175 12.4736 3.05119 13.4312C2.41063 14.3888 2.06796 15.5146 2.06641 16.6667C2.06641 16.8877 2.1542 17.0996 2.31048 17.2559C2.46676 17.4122 2.67873 17.5 2.89974 17.5H12.8997C13.1208 17.5 13.3327 17.4122 13.489 17.2559C13.6453 17.0996 13.7331 16.8877 13.7331 16.6667" fill="#181A18"/>
</svg>