<svg xmlns="http://www.w3.org/2000/svg" width="80" height="80" viewBox="0 0 80 80" fill="none">
  <path d="M66.6667 43.9333H57.6667L51.4667 50.6L39.6 63.3333L34.9 68.4L33.3333 70H66.6667C67.5507 70 68.3986 69.6488 69.0237 69.0237C69.6488 68.3986 70 67.5507 70 66.6667V47.2667C70 46.3826 69.6488 45.5348 69.0237 44.9096C68.3986 44.2845 67.5507 43.9333 66.6667 43.9333ZM60.6333 31L46.8333 18.1333C46.5267 17.824 46.1556 17.586 45.7466 17.4362C45.3376 17.2864 44.9006 17.2285 44.4667 17.2667C44.0289 17.2772 43.5976 17.3739 43.1972 17.5512C42.7968 17.7285 42.4353 17.9829 42.1333 18.3L39.4 21.2667V56.9667C39.3681 57.6032 39.3013 58.2375 39.2 58.8667L60.8 35.7C61.3992 35.0537 61.7181 34.1964 61.6868 33.3156C61.6556 32.4348 61.2768 31.6022 60.6333 31ZM36.0667 13.3333C36.0667 12.4493 35.7155 11.6014 35.0904 10.9763C34.4652 10.3512 33.6174 10 32.7333 10H13.3333C12.4493 10 11.6014 10.3512 10.9763 10.9763C10.3512 11.6014 10 12.4493 10 13.3333V56.9667C10 60.4233 11.3732 63.7384 13.8174 66.1826C16.2616 68.6269 19.5767 70 23.0333 70C26.49 70 29.8051 68.6269 32.2493 66.1826C34.6935 63.7384 36.0667 60.4233 36.0667 56.9667V13.3333ZM29.4 56.9667C29.4 58.6552 28.7292 60.2746 27.5352 61.4686C26.3413 62.6626 24.7219 63.3333 23.0333 63.3333C21.3448 63.3333 19.7254 62.6626 18.5314 61.4686C17.3374 60.2746 16.6667 58.6552 16.6667 56.9667V50H29.4V56.9667ZM29.4 43.3333H16.6667V33.3333H29.4V43.3333ZM29.4 26.6667H16.6667V16.6667H29.4V26.6667Z" fill="black"/>
</svg>