<svg xmlns="http://www.w3.org/2000/svg" width="80" height="80" viewBox="0 0 80 80" fill="none">
<path d="M40 45C42.7614 45 45 42.7614 45 40C45 37.2386 42.7614 35 40 35C37.2386 35 35 37.2386 35 40C35 42.7614 37.2386 45 40 45Z" fill="black"/>
<path d="M72.8999 38.3332C70.7666 34.6332 59.0332 16.0666 39.0999 16.6666C20.6666 17.1332 9.9999 33.3332 7.0999 38.3332C6.80734 38.84 6.65332 39.4148 6.65332 39.9999C6.65332 40.585 6.80734 41.1598 7.0999 41.6666C9.1999 45.2999 20.4332 63.3332 40.0666 63.3332H40.8999C59.3332 62.8666 70.0332 46.6666 72.8999 41.6666C73.1925 41.1598 73.3465 40.585 73.3465 39.9999C73.3465 39.4148 73.1925 38.84 72.8999 38.3332ZM39.9999 51.6666C37.6925 51.6666 35.4368 50.9823 33.5183 49.7004C31.5997 48.4184 30.1043 46.5963 29.2213 44.4645C28.3383 42.3327 28.1072 39.987 28.5574 37.7238C29.0076 35.4607 30.1187 33.3819 31.7503 31.7503C33.3819 30.1187 35.4607 29.0076 37.7239 28.5574C39.987 28.1072 42.3327 28.3383 44.4645 29.2213C46.5963 30.1043 48.4184 31.5997 49.7004 33.5182C50.9823 35.4368 51.6666 37.6924 51.6666 39.9999C51.6666 43.0941 50.4374 46.0615 48.2495 48.2495C46.0616 50.4374 43.0941 51.6666 39.9999 51.6666Z" fill="black"/>
</svg>