<svg xmlns="http://www.w3.org/2000/svg" width="80" height="80" viewBox="0 0 80 80" fill="none">
  <path d="M63.3334 13.3335H16.6667C14.0146 13.3335 11.471 14.3871 9.59568 16.2624C7.72032 18.1378 6.66675 20.6813 6.66675 23.3335V56.6668C6.66675 59.319 7.72032 61.8625 9.59568 63.7379C11.471 65.6133 14.0146 66.6668 16.6667 66.6668H63.3334C65.9856 66.6668 68.5291 65.6133 70.4045 63.7379C72.2799 61.8625 73.3334 59.319 73.3334 56.6668V23.3335C73.3334 20.6813 72.2799 18.1378 70.4045 16.2624C68.5291 14.3871 65.9856 13.3335 63.3334 13.3335ZM63.3334 20.0002L41.6667 34.9002C41.16 35.1927 40.5852 35.3467 40.0001 35.3467C39.415 35.3467 38.8401 35.1927 38.3334 34.9002L16.6667 20.0002H63.3334Z" fill="black"/>
</svg>