<svg xmlns="http://www.w3.org/2000/svg" width="80" height="80" viewBox="0 0 80 80" fill="none">
  <path d="M40.0001 19.9998C40.8841 19.9998 41.732 19.6486 42.3571 19.0235C42.9822 18.3984 43.3334 17.5506 43.3334 16.6665V9.99984C43.3334 9.11578 42.9822 8.26794 42.3571 7.64281C41.732 7.01769 40.8841 6.6665 40.0001 6.6665C39.116 6.6665 38.2682 7.01769 37.6431 7.64281C37.0179 8.26794 36.6667 9.11578 36.6667 9.99984V16.6665C36.6667 17.5506 37.0179 18.3984 37.6431 19.0235C38.2682 19.6486 39.116 19.9998 40.0001 19.9998ZM70.0001 36.6665H63.3334C62.4494 36.6665 61.6015 37.0177 60.9764 37.6428C60.3513 38.2679 60.0001 39.1158 60.0001 39.9998C60.0001 40.8839 60.3513 41.7317 60.9764 42.3569C61.6015 42.982 62.4494 43.3332 63.3334 43.3332H70.0001C70.8841 43.3332 71.732 42.982 72.3571 42.3569C72.9822 41.7317 73.3334 40.8839 73.3334 39.9998C73.3334 39.1158 72.9822 38.2679 72.3571 37.6428C71.732 37.0177 70.8841 36.6665 70.0001 36.6665ZM20.0001 39.9998C20.0001 39.1158 19.6489 38.2679 19.0238 37.6428C18.3986 37.0177 17.5508 36.6665 16.6667 36.6665H10.0001C9.11603 36.6665 8.26818 37.0177 7.64306 37.6428C7.01794 38.2679 6.66675 39.1158 6.66675 39.9998C6.66675 40.8839 7.01794 41.7317 7.64306 42.3569C8.26818 42.982 9.11603 43.3332 10.0001 43.3332H16.6667C17.5508 43.3332 18.3986 42.982 19.0238 42.3569C19.6489 41.7317 20.0001 40.8839 20.0001 39.9998ZM20.7334 16.6665C20.0836 16.0521 19.2164 15.721 18.3225 15.746C17.4285 15.771 16.5812 16.1501 15.9667 16.7998C15.3523 17.4496 15.0212 18.3169 15.0462 19.2108C15.0712 20.1047 15.4503 20.9521 16.1001 21.5665L20.9001 26.1998C21.2222 26.5109 21.6037 26.7538 22.0218 26.9142C22.4398 27.0745 22.8859 27.149 23.3334 27.1332C23.7824 27.1315 24.2265 27.039 24.6389 26.8615C25.0513 26.6839 25.4236 26.4248 25.7334 26.0998C26.3543 25.4753 26.7027 24.6305 26.7027 23.7498C26.7027 22.8692 26.3543 22.0244 25.7334 21.3998L20.7334 16.6665ZM56.6668 27.1332C57.525 27.1298 58.3488 26.7954 58.9668 26.1998L63.7667 21.5665C64.3523 20.9547 64.683 20.1429 64.6917 19.2961C64.7005 18.4492 64.3865 17.6308 63.8137 17.0071C63.2409 16.3833 62.4521 16.001 61.6076 15.9377C60.763 15.8745 59.9261 16.135 59.2668 16.6665L54.4668 21.3998C53.8459 22.0244 53.4974 22.8692 53.4974 23.7498C53.4974 24.6305 53.8459 25.4753 54.4668 26.0998C55.0439 26.7089 55.8295 27.0779 56.6668 27.1332ZM40.0001 59.9998C39.116 59.9998 38.2682 60.351 37.6431 60.9761C37.0179 61.6013 36.6667 62.4491 36.6667 63.3332V69.9998C36.6667 70.8839 37.0179 71.7317 37.6431 72.3569C38.2682 72.982 39.116 73.3332 40.0001 73.3332C40.8841 73.3332 41.732 72.982 42.3571 72.3569C42.9822 71.7317 43.3334 70.8839 43.3334 69.9998V63.3332C43.3334 62.4491 42.9822 61.6013 42.3571 60.9761C41.732 60.351 40.8841 59.9998 40.0001 59.9998ZM59.1001 53.7998C58.4636 53.1854 57.609 52.849 56.7245 52.8647C55.8399 52.8803 54.9978 53.2467 54.3834 53.8832C53.769 54.5197 53.4326 55.3742 53.4482 56.2588C53.4639 57.1433 53.8302 57.9854 54.4668 58.5998L59.2668 63.3332C59.8847 63.9288 60.7085 64.2631 61.5667 64.2665C62.0134 64.2691 62.456 64.1819 62.8683 64.0102C63.2806 63.8384 63.6541 63.5855 63.9668 63.2665C64.2792 62.9566 64.5272 62.588 64.6964 62.1818C64.8656 61.7756 64.9527 61.3399 64.9527 60.8998C64.9527 60.4598 64.8656 60.0241 64.6964 59.6179C64.5272 59.2117 64.2792 58.843 63.9668 58.5332L59.1001 53.7998ZM20.9001 53.7998L16.1001 58.4332C15.7877 58.7431 15.5397 59.1117 15.3704 59.5179C15.2012 59.9241 15.1141 60.3598 15.1141 60.7998C15.1141 61.2399 15.2012 61.6756 15.3704 62.0818C15.5397 62.488 15.7877 62.8566 16.1001 63.1665C16.4127 63.4855 16.7863 63.7384 17.1986 63.9102C17.6108 64.0819 18.0534 64.1691 18.5001 64.1665C19.3218 64.1735 20.1171 63.8767 20.7334 63.3332L25.5334 58.6998C26.1699 58.0854 26.5363 57.2433 26.5519 56.3588C26.5676 55.4742 26.2312 54.6197 25.6167 53.9832C25.0023 53.3467 24.1602 52.9803 23.2757 52.9647C22.3911 52.949 21.5366 53.2854 20.9001 53.8998V53.7998ZM40.0001 26.6665C37.363 26.6665 34.7851 27.4485 32.5925 28.9136C30.3998 30.3787 28.6909 32.461 27.6817 34.8974C26.6725 37.3337 26.4085 40.0146 26.9229 42.601C27.4374 45.1875 28.7073 47.5632 30.572 49.4279C32.4367 51.2926 34.8125 52.5625 37.3989 53.077C39.9853 53.5914 42.6662 53.3274 45.1025 52.3182C47.5389 51.3091 49.6213 49.6001 51.0863 47.4074C52.5514 45.2148 53.3334 42.6369 53.3334 39.9998C53.3334 36.4636 51.9287 33.0722 49.4282 30.5717C46.9277 28.0713 43.5363 26.6665 40.0001 26.6665Z" fill="black"/>
</svg>