<svg xmlns="http://www.w3.org/2000/svg" width="80" height="80" viewBox="0 0 80 80" fill="none">
  <path d="M23.3334 70H56.6668V23.3333H53.3334V18.3333C53.3334 16.1232 52.4554 14.0036 50.8926 12.4408C49.3298 10.878 47.2102 10 45.0001 10H35.0001C32.7899 10 30.6703 10.878 29.1075 12.4408C27.5447 14.0036 26.6667 16.1232 26.6667 18.3333V23.3333H23.3334V70ZM33.3334 18.3333C33.3334 17.8913 33.509 17.4674 33.8216 17.1548C34.1341 16.8423 34.5581 16.6667 35.0001 16.6667H45.0001C45.4421 16.6667 45.866 16.8423 46.1786 17.1548C46.4912 17.4674 46.6667 17.8913 46.6667 18.3333V23.3333H33.3334V18.3333ZM63.3334 23.3333V70C65.9856 70 68.5291 68.9464 70.4045 67.0711C72.2799 65.1957 73.3334 62.6522 73.3334 60V33.3333C73.3334 30.6812 72.2799 28.1376 70.4045 26.2623C68.5291 24.3869 65.9856 23.3333 63.3334 23.3333ZM16.6667 23.3333C14.0146 23.3333 11.471 24.3869 9.59568 26.2623C7.72032 28.1376 6.66675 30.6812 6.66675 33.3333V60C6.66675 62.6522 7.72032 65.1957 9.59568 67.0711C11.471 68.9464 14.0146 70 16.6667 70V23.3333Z" fill="black"/>
</svg>