<svg xmlns="http://www.w3.org/2000/svg" width="80" height="80" viewBox="0 0 80 80" fill="none">
  <path d="M30.0001 36.6667C32.6372 36.6667 35.215 35.8847 37.4077 34.4196C39.6003 32.9545 41.3093 30.8721 42.3185 28.4358C43.3276 25.9994 43.5917 23.3185 43.0772 20.7321C42.5628 18.1457 41.2929 15.7699 39.4282 13.9052C37.5635 12.0405 35.1877 10.7707 32.6013 10.2562C30.0149 9.74173 27.334 10.0058 24.8976 11.0149C22.4613 12.0241 20.3789 13.7331 18.9138 15.9257C17.4487 18.1184 16.6667 20.6963 16.6667 23.3333C16.6667 26.8696 18.0715 30.2609 20.572 32.7614C23.0725 35.2619 26.4639 36.6667 30.0001 36.6667ZM56.6668 43.3333C58.6446 43.3333 60.578 42.7468 62.2225 41.648C63.8669 40.5492 65.1487 38.9874 65.9055 37.1602C66.6624 35.3329 66.8605 33.3222 66.4746 31.3824C66.0888 29.4426 65.1363 27.6608 63.7378 26.2623C62.3393 24.8637 60.5575 23.9113 58.6177 23.5255C56.6778 23.1396 54.6672 23.3377 52.8399 24.0945C51.0127 24.8514 49.4509 26.1331 48.3521 27.7776C47.2532 29.4221 46.6668 31.3555 46.6667 33.3333C46.6668 35.9855 47.7203 38.529 49.5957 40.4044C51.471 42.2798 54.0146 43.3333 56.6668 43.3333ZM70.0001 66.6667C70.8841 66.6667 71.732 66.3155 72.3571 65.6904C72.9822 65.0652 73.3334 64.2174 73.3334 63.3333C73.3307 60.218 72.455 57.1658 70.8055 54.5229C69.1559 51.8801 66.7987 49.7525 64.0012 48.3816C61.2038 47.0106 58.078 46.4511 54.9787 46.7667C51.8794 47.0822 48.9305 48.2601 46.4667 50.1667C43.2018 46.9145 39.0469 44.702 34.5262 43.8081C30.0054 42.9142 25.3211 43.379 21.0642 45.1438C16.8072 46.9086 13.1681 49.8945 10.6059 53.7248C8.04365 57.5551 6.67298 62.0584 6.66675 66.6667C6.66675 67.5507 7.01794 68.3986 7.64306 69.0237C8.26818 69.6488 9.11603 70 10.0001 70H50.0001C50.8841 70 51.732 69.6488 52.3571 69.0237C52.9822 68.3986 53.3334 67.5507 53.3334 66.6667" fill="black"/>
</svg>