<svg xmlns="http://www.w3.org/2000/svg" width="20" height="20" viewBox="0 0 20 20" fill="none">
<path d="M4.16683 10.8334H14.0502L11.0252 14.4668C10.9551 14.551 10.9024 14.6482 10.8699 14.7529C10.8374 14.8576 10.8259 14.9676 10.836 15.0767C10.8563 15.297 10.9633 15.5003 11.1335 15.6418C11.3037 15.7832 11.5231 15.8513 11.7434 15.8309C11.9638 15.8106 12.167 15.7036 12.3085 15.5334L16.4752 10.5334C16.5032 10.4936 16.5283 10.4519 16.5502 10.4084C16.5502 10.3668 16.5918 10.3418 16.6085 10.3001C16.6463 10.2045 16.666 10.1028 16.6668 10.0001C16.666 9.89734 16.6463 9.79563 16.6085 9.70008C16.6085 9.65842 16.5668 9.63342 16.5502 9.59175C16.5283 9.5483 16.5032 9.50652 16.4752 9.46675L12.3085 4.46675C12.2301 4.37268 12.132 4.29703 12.0211 4.24518C11.9102 4.19333 11.7893 4.16655 11.6668 4.16675C11.4721 4.16637 11.2834 4.23418 11.1335 4.35842C11.0491 4.42837 10.9794 4.51429 10.9282 4.61125C10.8771 4.7082 10.8456 4.81429 10.8355 4.92344C10.8255 5.03259 10.8371 5.14265 10.8696 5.24732C10.9021 5.35199 10.955 5.44921 11.0252 5.53342L14.0502 9.16675H4.16683C3.94582 9.16675 3.73385 9.25455 3.57757 9.41083C3.42129 9.56711 3.3335 9.77907 3.3335 10.0001C3.3335 10.2211 3.42129 10.4331 3.57757 10.5893C3.73385 10.7456 3.94582 10.8334 4.16683 10.8334Z" fill="#181A18"/>
</svg>