<svg xmlns="http://www.w3.org/2000/svg" width="24" height="24" viewBox="0 0 24 24" fill="none">
<path d="M15.1498 8.40006C14.3834 8.39743 13.6239 8.54595 12.9149 8.83714C12.2059 9.12832 11.5613 9.55644 11.018 10.097C10.4746 10.6376 10.0432 11.28 9.74837 11.9875C9.45354 12.6949 9.30111 13.4536 9.2998 14.2201V20.1001C9.2998 20.3388 9.39463 20.5677 9.56341 20.7365C9.73219 20.9052 9.96111 21.0001 10.1998 21.0001H12.2998C12.5385 21.0001 12.7674 20.9052 12.9362 20.7365C13.105 20.5677 13.1998 20.3388 13.1998 20.1001V14.2201C13.1996 13.9475 13.2569 13.6779 13.3678 13.4289C13.4788 13.1799 13.641 12.9571 13.8439 12.775C14.0467 12.5929 14.2857 12.4556 14.5452 12.372C14.8046 12.2885 15.0788 12.2606 15.3498 12.2901C15.8358 12.3513 16.2825 12.5887 16.605 12.9574C16.9276 13.326 17.1036 13.8002 17.0998 14.2901V20.1001C17.0998 20.3388 17.1946 20.5677 17.3634 20.7365C17.5322 20.9052 17.7611 21.0001 17.9998 21.0001H20.0998C20.3385 21.0001 20.5674 20.9052 20.7362 20.7365C20.905 20.5677 20.9998 20.3388 20.9998 20.1001V14.2201C20.9985 13.4536 20.8461 12.6949 20.5512 11.9875C20.2564 11.28 19.825 10.6376 19.2816 10.097C18.7383 9.55644 18.0937 9.12832 17.3847 8.83714C16.6757 8.54595 15.9163 8.39743 15.1498 8.40006Z" fill="#064749"/>
<path d="M6.6 9.30005H3.9C3.40294 9.30005 3 9.70299 3 10.2V20.1C3 20.5971 3.40294 21 3.9 21H6.6C7.09706 21 7.5 20.5971 7.5 20.1V10.2C7.5 9.70299 7.09706 9.30005 6.6 9.30005Z" fill="#064749"/>
<path d="M5.25 7.5C6.49264 7.5 7.5 6.49264 7.5 5.25C7.5 4.00736 6.49264 3 5.25 3C4.00736 3 3 4.00736 3 5.25C3 6.49264 4.00736 7.5 5.25 7.5Z" fill="#064749"/>
</svg>