<svg xmlns="http://www.w3.org/2000/svg" width="60" height="60" viewBox="0 0 60 60" fill="none">
<path d="M30 40C31.3807 40 32.5 38.8807 32.5 37.5C32.5 36.1193 31.3807 35 30 35C28.6193 35 27.5 36.1193 27.5 37.5C27.5 38.8807 28.6193 40 30 40Z" fill="black"/>
<path d="M42.5 19.9999H40V15.2749C40 12.6227 38.9464 10.0792 37.0711 8.20383C35.1957 6.32847 32.6522 5.2749 30 5.2749C27.3478 5.2749 24.8043 6.32847 22.9289 8.20383C21.0536 10.0792 20 12.6227 20 15.2749V19.9999H17.5C15.5109 19.9999 13.6032 20.7901 12.1967 22.1966C10.7902 23.6031 10 25.5108 10 27.4999V47.4999C10 49.489 10.7902 51.3967 12.1967 52.8032C13.6032 54.2097 15.5109 54.9999 17.5 54.9999H42.5C44.4891 54.9999 46.3968 54.2097 47.8033 52.8032C49.2098 51.3967 50 49.489 50 47.4999V27.4999C50 25.5108 49.2098 23.6031 47.8033 22.1966C46.3968 20.7901 44.4891 19.9999 42.5 19.9999ZM25 15.2749C24.9664 13.9131 25.4736 12.5935 26.4107 11.6049C27.3478 10.6163 28.6384 10.0392 30 9.9999C31.3616 10.0392 32.6522 10.6163 33.5893 11.6049C34.5264 12.5935 35.0336 13.9131 35 15.2749V19.9999H25V15.2749ZM30 44.9999C28.5166 44.9999 27.0666 44.56 25.8332 43.7359C24.5999 42.9118 23.6386 41.7405 23.0709 40.37C22.5032 38.9996 22.3547 37.4916 22.6441 36.0367C22.9335 34.5819 23.6478 33.2455 24.6967 32.1966C25.7456 31.1477 27.082 30.4334 28.5368 30.144C29.9917 29.8546 31.4997 30.0031 32.8701 30.5708C34.2406 31.1385 35.4119 32.0998 36.236 33.3331C37.0601 34.5665 37.5 36.0165 37.5 37.4999C37.5 39.489 36.7098 41.3967 35.3033 42.8032C33.8968 44.2097 31.9891 44.9999 30 44.9999Z" fill="black"/>
</svg>