<svg xmlns="http://www.w3.org/2000/svg" width="60" height="60" viewBox="0 0 60 60" fill="none">
  <path d="M42.5 27.5V12.5C42.5 9.75 40.25 7.5 37.5 7.5H22.5C19.75 7.5 17.5 9.75 17.5 12.5V17.5H12.5C9.75 17.5 7.5 19.75 7.5 22.5V47.5C7.5 50.25 9.75 52.5 12.5 52.5H25C26.375 52.5 27.5 51.375 27.5 50V42.5H32.5V50C32.5 51.375 33.625 52.5 35 52.5H47.5C50.25 52.5 52.5 50.25 52.5 47.5V32.5C52.5 29.75 50.25 27.5 47.5 27.5H42.5ZM17.5 47.5H12.5V42.5H17.5V47.5ZM17.5 37.5H12.5V32.5H17.5V37.5ZM17.5 27.5H12.5V22.5H17.5V27.5ZM27.5 37.5H22.5V32.5H27.5V37.5ZM27.5 27.5H22.5V22.5H27.5V27.5ZM27.5 17.5H22.5V12.5H27.5V17.5ZM37.5 37.5H32.5V32.5H37.5V37.5ZM37.5 27.5H32.5V22.5H37.5V27.5ZM37.5 17.5H32.5V12.5H37.5V17.5ZM47.5 47.5H42.5V42.5H47.5V47.5ZM47.5 37.5H42.5V32.5H47.5V37.5Z" fill="black"/>
</svg>