<svg xmlns="http://www.w3.org/2000/svg" width="60" height="60" viewBox="0 0 60 60" fill="none">
  <path d="M53.675 28.9498L37.625 12.9248C37.2161 12.5135 36.677 12.2573 36.1 12.1998L12.725 9.99977C12.3588 9.96609 11.9897 10.0136 11.644 10.1389C11.2983 10.2642 10.9845 10.4643 10.725 10.7248C10.4645 10.9843 10.2645 11.2981 10.1392 11.6438C10.0138 11.9895 9.96633 12.3586 10 12.7248L12.2 36.0998C12.2575 36.6768 12.5138 37.2159 12.925 37.6248L28.95 53.6748C29.8095 54.5225 30.9678 54.9984 32.175 54.9998C33.3746 54.9972 34.5247 54.521 35.375 53.6748L53.675 35.3748C54.5253 34.5219 55.0028 33.3666 55.0028 32.1623C55.0028 30.9579 54.5253 29.8027 53.675 28.9498ZM28.9 28.9498C28.3757 29.4747 27.7076 29.8323 26.98 29.9774C26.2525 30.1224 25.4982 30.0485 24.8127 29.7648C24.1272 29.4811 23.5413 29.0004 23.129 28.3836C22.7168 27.7668 22.4967 27.0416 22.4967 26.2998C22.4967 25.5579 22.7168 24.8327 23.129 24.2159C23.5413 23.5991 24.1272 23.1185 24.8127 22.8348C25.4982 22.5511 26.2525 22.4771 26.98 22.6222C27.7076 22.7672 28.3757 23.1249 28.9 23.6498C29.5931 24.3476 29.9821 25.2912 29.9821 26.2748C29.9821 27.2583 29.5931 28.2019 28.9 28.8998V28.9498Z" fill="black"/>
</svg>