<svg xmlns="http://www.w3.org/2000/svg" width="60" height="60" viewBox="0 0 60 60" fill="none">
  <path d="M55 30C55 16.1925 43.8075 5 30 5C16.1925 5 5 16.1925 5 30C5 43.8075 16.1925 55 30 55C43.8075 55 55 43.8075 55 30ZM18.75 21.86C19.6175 20.905 21.0375 20 23.125 20C26.005 20 27.86 21.98 28.5125 24.1525C29.145 26.27 28.7625 28.89 26.9625 30.6975C26.3382 31.2977 25.676 31.8572 24.98 32.3725L24.88 32.45C24.18 32.99 23.555 33.48 23.005 34.025C22.3675 34.665 21.845 35.3625 21.5425 36.25H26.875C27.3723 36.25 27.8492 36.4475 28.2008 36.7992C28.5525 37.1508 28.75 37.6277 28.75 38.125C28.75 38.6223 28.5525 39.0992 28.2008 39.4508C27.8492 39.8025 27.3723 40 26.875 40H19.375C18.8777 40 18.4008 39.8025 18.0492 39.4508C17.6975 39.0992 17.5 38.6223 17.5 38.125C17.5 35.0075 18.81 32.9175 20.36 31.3725C21.1 30.6325 21.905 30.01 22.585 29.4825L22.5925 29.4775C23.3075 28.925 23.8625 28.495 24.305 28.0525C24.985 27.3675 25.2225 26.24 24.92 25.2275C24.6325 24.275 23.995 23.75 23.125 23.75C22.2425 23.75 21.7875 24.0925 21.525 24.3825C21.3714 24.552 21.2465 24.7454 21.155 24.955V24.9625C21.0018 25.4359 20.6669 25.8291 20.2238 26.0555C19.7808 26.282 19.2659 26.3232 18.7925 26.17C18.3191 26.0168 17.9259 25.6819 17.6995 25.2388C17.473 24.7958 17.4318 24.2809 17.585 23.8075L17.6725 23.5675C17.9294 22.9404 18.2931 22.3627 18.7475 21.86H18.75ZM33.125 20C33.6223 20 34.0992 20.1975 34.4508 20.5492C34.8025 20.9008 35 21.3777 35 21.875V28.75H38.75V21.875C38.75 21.3777 38.9475 20.9008 39.2992 20.5492C39.6508 20.1975 40.1277 20 40.625 20C41.1223 20 41.5992 20.1975 41.9508 20.5492C42.3025 20.9008 42.5 21.3777 42.5 21.875V38.05C42.5 38.5473 42.3025 39.0242 41.9508 39.3758C41.5992 39.7275 41.1223 39.925 40.625 39.925C40.1277 39.925 39.6508 39.7275 39.2992 39.3758C38.9475 39.0242 38.75 38.5473 38.75 38.05V32.5H33.125C32.6277 32.5 32.1508 32.3025 31.7992 31.9508C31.4475 31.5992 31.25 31.1223 31.25 30.625V21.875C31.25 21.3777 31.4475 20.9008 31.7992 20.5492C32.1508 20.1975 32.6277 20 33.125 20Z" fill="black"/>
</svg>