<svg xmlns="http://www.w3.org/2000/svg" width="60" height="60" viewBox="0 0 60 60" fill="none">
<path d="M51.775 48.225L43.275 39.75C46.0175 36.2561 47.5055 31.9416 47.5 27.5C47.5 23.5444 46.327 19.6776 44.1294 16.3886C41.9318 13.0996 38.8082 10.5362 35.1537 9.02242C31.4992 7.50867 27.4778 7.1126 23.5982 7.8843C19.7186 8.65601 16.1549 10.5608 13.3579 13.3579C10.5608 16.1549 8.65601 19.7186 7.8843 23.5982C7.1126 27.4778 7.50867 31.4992 9.02242 35.1537C10.5362 38.8082 13.0996 41.9318 16.3886 44.1294C19.6776 46.327 23.5444 47.5 27.5 47.5C31.9416 47.5055 36.2561 46.0175 39.75 43.275L48.225 51.775C48.4574 52.0093 48.7339 52.1953 49.0386 52.3222C49.3432 52.4492 49.67 52.5145 50 52.5145C50.33 52.5145 50.6568 52.4492 50.9615 52.3222C51.2661 52.1953 51.5426 52.0093 51.775 51.775C52.0093 51.5426 52.1953 51.2661 52.3222 50.9615C52.4492 50.6568 52.5145 50.33 52.5145 50C52.5145 49.67 52.4492 49.3432 52.3222 49.0386C52.1953 48.7339 52.0093 48.4574 51.775 48.225ZM12.5 27.5C12.5 24.5333 13.3797 21.6332 15.028 19.1665C16.6762 16.6997 19.0189 14.7771 21.7598 13.6418C24.5007 12.5065 27.5166 12.2095 30.4264 12.7882C33.3361 13.367 36.0088 14.7956 38.1066 16.8934C40.2044 18.9912 41.633 21.6639 42.2118 24.5737C42.7906 27.4834 42.4935 30.4994 41.3582 33.2403C40.2229 35.9812 38.3003 38.3238 35.8336 39.9721C33.3668 41.6203 30.4667 42.5 27.5 42.5C23.5218 42.5 19.7065 40.9197 16.8934 38.1066C14.0804 35.2936 12.5 31.4783 12.5 27.5Z" fill="black"/>
</svg>