<svg xmlns="http://www.w3.org/2000/svg" width="61" height="60" viewBox="0 0 61 60" fill="none">
  <path d="M50.0165 18.3255L38.9165 5.82545C38.6828 5.56647 38.3974 5.35927 38.0788 5.21719C37.7602 5.0751 37.4154 5.00127 37.0665 5.00045H17.0665C16.2359 4.99054 15.4114 5.14435 14.6403 5.45309C13.8691 5.76183 13.1663 6.21946 12.572 6.79983C11.9777 7.38021 11.5035 8.07197 11.1765 8.83562C10.8496 9.59926 10.6763 10.4198 10.6665 11.2505V48.7505C10.6763 49.5811 10.8496 50.4016 11.1765 51.1653C11.5035 51.9289 11.9777 52.6207 12.572 53.2011C13.1663 53.7814 13.8691 54.2391 14.6403 54.5478C15.4114 54.8566 16.2359 55.0104 17.0665 55.0005H44.2665C45.0971 55.0104 45.9216 54.8566 46.6928 54.5478C47.4639 54.2391 48.1667 53.7814 48.761 53.2011C49.3554 52.6207 49.8295 51.9289 50.1565 51.1653C50.4834 50.4016 50.6567 49.5811 50.6665 48.7505V20.0005C50.6649 19.3809 50.4332 18.7839 50.0165 18.3255ZM23.1665 30.0005H30.6665C31.3295 30.0005 31.9654 30.2638 32.4343 30.7327C32.9031 31.2015 33.1665 31.8374 33.1665 32.5005C33.1665 33.1635 32.9031 33.7994 32.4343 34.2682C31.9654 34.7371 31.3295 35.0005 30.6665 35.0005H23.1665C22.5035 35.0005 21.8676 34.7371 21.3987 34.2682C20.9299 33.7994 20.6665 33.1635 20.6665 32.5005C20.6665 31.8374 20.9299 31.2015 21.3987 30.7327C21.8676 30.2638 22.5035 30.0005 23.1665 30.0005ZM38.1665 45.0005H23.1665C22.5035 45.0005 21.8676 44.7371 21.3987 44.2682C20.9299 43.7994 20.6665 43.1635 20.6665 42.5005C20.6665 41.8374 20.9299 41.2015 21.3987 40.7327C21.8676 40.2638 22.5035 40.0005 23.1665 40.0005H38.1665C38.8295 40.0005 39.4654 40.2638 39.9343 40.7327C40.4031 41.2015 40.6665 41.8374 40.6665 42.5005C40.6665 43.1635 40.4031 43.7994 39.9343 44.2682C39.4654 44.7371 38.8295 45.0005 38.1665 45.0005ZM37.4415 20.0005C36.9261 19.9497 36.4513 19.6985 36.1193 19.3011C35.7873 18.9036 35.6247 18.3916 35.6665 17.8755V10.0005L45.0165 20.0005H37.4415Z" fill="#181A18"/>
</svg>