<svg xmlns="http://www.w3.org/2000/svg" width="61" height="60" viewBox="0 0 61 60" fill="none">
<path d="M30.3335 27.5C32.3113 27.5 34.2447 26.9135 35.8892 25.8147C37.5337 24.7159 38.8154 23.1541 39.5723 21.3268C40.3292 19.4996 40.5272 17.4889 40.1413 15.5491C39.7555 13.6093 38.8031 11.8275 37.4046 10.4289C36.006 9.03041 34.2242 8.078 32.2844 7.69215C30.3446 7.3063 28.3339 7.50433 26.5067 8.26121C24.6794 9.01809 23.1176 10.2998 22.0188 11.9443C20.92 13.5888 20.3335 15.5222 20.3335 17.5C20.3335 20.1522 21.3871 22.6957 23.2624 24.5711C25.1378 26.4464 27.6813 27.5 30.3335 27.5ZM45.3335 52.5C45.9965 52.5 46.6324 52.2366 47.1013 51.7678C47.5701 51.2989 47.8335 50.663 47.8335 50C47.8335 45.3587 45.9897 40.9075 42.7079 37.6256C39.426 34.3438 34.9748 32.5 30.3335 32.5C25.6922 32.5 21.241 34.3438 17.9591 37.6256C14.6772 40.9075 12.8335 45.3587 12.8335 50C12.8335 50.663 13.0969 51.2989 13.5657 51.7678C14.0346 52.2366 14.6705 52.5 15.3335 52.5H45.3335Z" fill="black"/>
</svg>