<svg xmlns="http://www.w3.org/2000/svg" width="25" height="24" viewBox="0 0 25 24" fill="none">
  <path d="M19.3999 11H13.3999V5C13.3999 4.73478 13.2945 4.48043 13.107 4.29289C12.9195 4.10536 12.6651 4 12.3999 4C12.1347 4 11.8803 4.10536 11.6928 4.29289C11.5053 4.48043 11.3999 4.73478 11.3999 5V11H5.3999C5.13469 11 4.88033 11.1054 4.6928 11.2929C4.50526 11.4804 4.3999 11.7348 4.3999 12C4.3999 12.2652 4.50526 12.5196 4.6928 12.7071C4.88033 12.8946 5.13469 13 5.3999 13H11.3999V19C11.3999 19.2652 11.5053 19.5196 11.6928 19.7071C11.8803 19.8946 12.1347 20 12.3999 20C12.6651 20 12.9195 19.8946 13.107 19.7071C13.2945 19.5196 13.3999 19.2652 13.3999 19V13H19.3999C19.6651 13 19.9195 12.8946 20.107 12.7071C20.2945 12.5196 20.3999 12.2652 20.3999 12C20.3999 11.7348 20.2945 11.4804 20.107 11.2929C19.9195 11.1054 19.6651 11 19.3999 11Z" fill="#181A18"/>
</svg>