<svg xmlns="http://www.w3.org/2000/svg" width="24" height="24" viewBox="0 0 24 24" fill="none">
<path d="M8.0798 20C9.55849 20.0495 11.0321 19.8021 12.4135 19.2723C13.795 18.7426 15.0562 17.9413 16.1227 16.9159C17.1892 15.8904 18.0393 14.6615 18.6228 13.3019C19.2063 11.9423 19.5113 10.4795 19.5198 9.00004C20.1974 8.16146 20.7006 7.19587 20.9998 6.16004C21.0221 6.07821 21.0203 5.99166 20.9946 5.91082C20.9689 5.82998 20.9203 5.7583 20.8548 5.70441C20.7893 5.65052 20.7096 5.61672 20.6253 5.60707C20.5411 5.59743 20.4558 5.61235 20.3798 5.65004C20.0253 5.8207 19.6262 5.87582 19.2386 5.80765C18.8511 5.73948 18.4948 5.55145 18.2198 5.27004C17.8687 4.88562 17.4441 4.57557 16.971 4.35827C16.498 4.14097 15.9861 4.02083 15.4657 4.00498C14.9454 3.98913 14.4272 4.07788 13.9417 4.26598C13.4563 4.45408 13.0136 4.73771 12.6398 5.10004C12.128 5.5957 11.7531 6.21533 11.5516 6.89872C11.3501 7.5821 11.3288 8.306 11.4898 9.00004C8.1398 9.20004 5.8398 7.61004 3.9998 5.43004C3.94452 5.36745 3.87221 5.3223 3.7917 5.30011C3.71119 5.27793 3.62596 5.27967 3.54642 5.30512C3.46688 5.33057 3.39648 5.37864 3.3438 5.44344C3.29113 5.50824 3.25846 5.58698 3.2498 5.67004C2.89927 7.61447 3.15213 9.61959 3.97442 11.4161C4.7967 13.2126 6.14904 14.7145 7.8498 15.72C6.70943 17.0279 5.10801 17.8447 3.3798 18C3.28721 18.0154 3.20174 18.0593 3.13535 18.1257C3.06896 18.192 3.02497 18.2774 3.00954 18.37C2.99411 18.4626 3.00801 18.5577 3.0493 18.6419C3.09059 18.7262 3.15719 18.7955 3.2398 18.84C4.74332 19.5914 6.39903 19.9882 8.0798 20Z" fill="#064749"/>
</svg>